<?xml version="1.0" encoding="utf-8"?>
<svg version="1.1" id="Layer_1" xmlns="http://www.w3.org/2000/svg" xmlns:xlink="http://www.w3.org/1999/xlink" x="0px" y="0px" viewBox="0 0 192.8 170.9" style="enable-background:new 0 0 192.8 170.9;" xml:space="preserve">
  <style type="text/css">
    .st0{fill:#F3F4F5;}
  </style>
  <g>
    <path class="st0" d="M109.1,14.1c0,0,3.5,3.9,3.5,5.8s-1.6,3.5-3.5,3.5c-1.9,0-3.5-1.6-3.5-3.5S109.1,14.1,109.1,14.1z"/>
    <g>
      <g>
        <g>
          <polygon class="st0" points="122.9,15.4 142.6,40.7 162.3,66 136.5,66 110.7,33.1 				"/>
          <path class="st0" d="M107.7,33L82,0L56.3,33L30.5,66H82h51.5L107.7,33z M89.6,20.2L82,29.5l-7.7-9.3L59,33l11.5-14.7L82,3.5
					l11.5,14.7L105,33L89.6,20.2z"/>
        </g>
        <g>
          <g>
            <path class="st0" d="M17.5,81.9H0.7V70h54.6v11.9H38.5V110H17.5V81.9z"/>
            <path class="st0" d="M61.9,70h22.8l18.4,40H82.4l-2.2-5.8H65.1l-2.2,5.8H43.4L61.9,70z M68.6,95.2h8.1l-4.1-10.3L68.6,95.2z"/>
            <path class="st0" d="M101.5,70h20.9v28.4h24.9V110h-45.8V70z"/>
            <path class="st0" d="M147.1,70H168v28.4h24.9V110h-45.8V70z"/>
            <path class="st0" d="M17.6,113.4h35c9.8,0,15.1,4.1,15.1,10.6c0,4.2-2.2,7.4-6.3,9.1c4.9,1.4,7.3,4.7,7.3,9.3
						c0,6.9-5.7,11-15.5,11H17.6V113.4z M38.1,123.7v5.8h6.7c1.9,0,3.1-1,3.1-2.9c0-1.9-1.2-2.9-3.1-2.9H38.1z M38.1,137.8v5.9h7
						c1.9,0,3.2-1,3.2-3s-1.3-3-3.2-3H38.1z"/>
            <path class="st0" d="M68.7,133.5c0-13.5,11-21.1,27.6-21.1c16.6,0,27.6,7.7,27.6,21.1s-11,21.1-27.6,21.1
						C79.7,154.6,68.7,146.9,68.7,133.5z M102.3,133.5c0-6.1-2.5-8.2-6-8.2c-3.5,0-5.9,2.2-5.9,8.2c0,6.1,2.5,8.2,5.9,8.2
						C99.8,141.7,102.3,139.6,102.3,133.5z"/>
            <path class="st0" d="M136.7,141.7l-20.2-28.2h22.3l8.7,13.4l8.7-13.4h21.4l-20.2,28.2v11.8h-20.8V141.7z"/>
          </g>
        </g>
      </g>
      <g>
        <path class="st0" d="M17.5,156.7h2.2l0.3,1.2l0.2,1.2l0.4-1.2l0.3-1.2h1.9l0.3,1.2l0.4,1.2l0.2-1.2l0.3-1.2h2.1l-1.3,4.9h-2.3
				l-0.3-1.1l-0.3-1.2l-0.3,1.2l-0.3,1.1h-2.3L17.5,156.7z"/>
        <path class="st0" d="M54.3,156.7h2.8l2.2,4.9h-2.5l-0.3-0.7h-1.8l-0.3,0.7h-2.4L54.3,156.7z M55.1,159.8h1l-0.5-1.2L55.1,159.8z"/>
        <path class="st0" d="M87,158.1h-2v-1.4h6.6v1.4h-2v3.4H87V158.1z"/>
        <path class="st0" d="M118.7,156.7h5.5v1.4h-3v0.5h2.2v1.2h-2.2v0.5h3v1.3h-5.5V156.7z"/>
        <path class="st0" d="M151.3,156.7h4.2c1.4,0,2.1,0.5,2.1,1.4c0,0.5-0.3,1-0.8,1.2c0.5,0.1,0.8,0.4,0.8,1c0,0.5,0,1,0.2,1.3h-2.6
				c-0.1-0.3-0.1-0.7-0.1-1.2c0-0.2-0.1-0.3-0.3-0.3h-0.8v1.6h-2.5V156.7z M153.9,158v0.8h0.8c0.3,0,0.4-0.1,0.4-0.4
				c0-0.3-0.2-0.4-0.4-0.4H153.9z"/>
      </g>
    </g>
  </g>
</svg>
